# xmcd
#
# Track frame offsets:
#	150
#	16765
#	32683
#	49049
#
# Disc length: 865 seconds
#
# Revision: 1
# Processed by: cddbd v1.5.2PL0 Copyright (c) Steve Scherf et al.
# Submitted via: EasyCDDAExtractor 10.0.6.1
#
DISCID=23035f04
DTITLE=은지원 - G Code
DYEAR=2008
DGENRE=Hip-Hop
TTITLE0=No Return Love
TTITLE1=Over The Black Fence
TTITLE2=No Return Love(カラオケ)
TTITLE3=Over The Black Fence(カラオケ)
EXTD=YEAR: 1994
EXTT0=
EXTT1=
EXTT2=
EXTT3=
PLAYORDER=
